<svg xmlns="http://www.w3.org/2000/svg" display="none">
    <symbol id="search" viewBox="0 0 18.13 19.469">
        <path d="M1117.18,54.208a7.718,7.718,0,0,0,1.94-5.144,7.271,7.271,0,1,0-7.26,7.578,7.047,7.047,0,0,0,4.35-1.509l5.4,5.636a0.617,0.617,0,0,0,.92,0,0.723,0.723,0,0,0,0-.971Zm-11.27-5.144a5.955,5.955,0,1,1,5.95,6.207A6.087,6.087,0,0,1,1105.91,49.064Z"
              transform="translate(-1104.59 -41.5)"/>
    </symbol>

    <symbol id="user" viewBox="0 0 15.57 19.469">
        <path d="M1293.59,59.723a0.808,0.808,0,0,0,.82.789h13.94a0.808,0.808,0,0,0,.82-0.789c0-4.364-2.06-8.11-4.94-9.609a4.9,4.9,0,0,0,2.31-4.127,5.16,5.16,0,0,0-10.31,0,4.9,4.9,0,0,0,2.32,4.127C1295.65,51.613,1293.59,55.359,1293.59,59.723Zm7.79-17.1a3.368,3.368,0,1,1-3.5,3.365A3.439,3.439,0,0,1,1301.38,42.622Zm0,8.347c3.2,0,5.83,3.51,6.12,7.965h-12.24C1295.55,54.479,1298.18,50.969,1301.38,50.969Z"
              transform="translate(-1293.59 -41.031)"/>
    </symbol>
    <symbol id="user2" viewBox="0 0 415.744 415.744">
        <g>
            <g>
                <path d="M207.872,0c-53.76,0-97.28,43.52-97.28,97.28s43.52,97.28,97.28,97.28s97.28-43.52,97.28-97.28S261.632,0,207.872,0z"/>
            </g>
        </g>
        <g>
            <g>
                <path d="M245.76,205.824h-75.776c-76.288,0-138.24,61.952-138.24,138.24v56.32c0,8.704,6.656,15.36,15.36,15.36H368.64
			c8.704,0,15.36-6.656,15.36-15.36v-56.32C384,267.776,322.048,205.824,245.76,205.824z"/>
            </g>
        </g>
    </symbol>


    <symbol id="basket" viewBox="0 0 16 15">
        <path d="M531.592,1949.22h1.7l2.417,9.03a0.6,0.6,0,0,0,.573.45h7.428a0.6,0.6,0,0,0,.543-0.37l2.7-6.42a0.636,0.636,0,0,0-.049-0.58,0.6,0.6,0,0,0-.494-0.28H538.2a0.615,0.615,0,0,0,0,1.23h7.3l-2.191,5.19h-6.59l-2.416-9.02a0.592,0.592,0,0,0-.573-0.45h-2.14a0.6,0.6,0,0,0-.592.61A0.606,0.606,0,0,0,531.592,1949.22Zm4.123,13.78a1.386,1.386,0,1,0-1.341-1.39A1.366,1.366,0,0,0,535.715,1963Zm8.386,0h0.1a1.345,1.345,0,0,0,.918-0.48,1.415,1.415,0,0,0,.325-1.01,1.353,1.353,0,0,0-1.43-1.28A1.389,1.389,0,0,0,544.1,1963Z"
              transform="translate(-531 -1948)"/>
    </symbol>

    <symbol id="basket2" viewBox="0 -31 512.00033 512">
        <path d="m166 300.003906h271.003906c6.710938 0 12.597656-4.4375 14.414063-10.882812l60.003906-210.003906c1.289063-4.527344.40625-9.390626-2.433594-13.152344-2.84375-3.75-7.265625-5.964844-11.984375-5.964844h-365.632812l-10.722656-48.25c-1.523438-6.871094-7.617188-11.75-14.648438-11.75h-91c-8.289062 0-15 6.710938-15 15 0 8.292969 6.710938 15 15 15h78.960938l54.167968 243.75c-15.9375 6.929688-27.128906 22.792969-27.128906 41.253906 0 24.8125 20.1875 45 45 45h271.003906c8.292969 0 15-6.707031 15-15 0-8.289062-6.707031-15-15-15h-271.003906c-8.261719 0-15-6.722656-15-15s6.738281-15 15-15zm0 0"/>
        <path d="m151 405.003906c0 24.816406 20.1875 45 45.003906 45 24.8125 0 45-20.183594 45-45 0-24.8125-20.1875-45-45-45-24.816406 0-45.003906 20.1875-45.003906 45zm0 0"/>
        <path d="m362.003906 405.003906c0 24.816406 20.1875 45 45 45 24.816406 0 45-20.183594 45-45 0-24.8125-20.183594-45-45-45-24.8125 0-45 20.1875-45 45zm0 0"/>
    </symbol>

    <symbol id="fb" viewBox="0 0 24 24">
        <path d="m15.997 3.985h2.191v-3.816c-.378-.052-1.678-.169-3.192-.169-3.159 0-5.323 1.987-5.323 5.639v3.361h-3.486v4.266h3.486v10.734h4.274v-10.733h3.345l.531-4.266h-3.877v-2.939c.001-1.233.333-2.077 2.051-2.077z"/>
    </symbol>

    <symbol id="vk" viewBox="0 0 24 24">
        <path d="m19.915 13.028c-.388-.49-.277-.708 0-1.146.005-.005 3.208-4.431 3.538-5.932l.002-.001c.164-.547 0-.949-.793-.949h-2.624c-.668 0-.976.345-1.141.731 0 0-1.336 3.198-3.226 5.271-.61.599-.892.791-1.225.791-.164 0-.419-.192-.419-.739v-5.105c0-.656-.187-.949-.74-.949h-4.126c-.419 0-.668.306-.668.591 0 .622.945.765 1.043 2.515v3.797c0 .832-.151.985-.486.985-.892 0-3.057-3.211-4.34-6.886-.259-.713-.512-1.001-1.185-1.001h-2.625c-.749 0-.9.345-.9.731 0 .682.892 4.073 4.148 8.553 2.17 3.058 5.226 4.715 8.006 4.715 1.671 0 1.875-.368 1.875-1.001 0-2.922-.151-3.198.686-3.198.388 0 1.056.192 2.616 1.667 1.783 1.749 2.076 2.532 3.074 2.532h2.624c.748 0 1.127-.368.909-1.094-.499-1.527-3.871-4.668-4.023-4.878z"/>
    </symbol>
    <symbol id="whatsapp" viewBox="0 0 512 512">
        <g>
            <g>
                <path d="M256.064,0h-0.128C114.784,0,0,114.816,0,256c0,56,18.048,107.904,48.736,150.048l-31.904,95.104l98.4-31.456
			C155.712,496.512,204,512,256.064,512C397.216,512,512,397.152,512,256S397.216,0,256.064,0z M405.024,361.504
			c-6.176,17.44-30.688,31.904-50.24,36.128c-13.376,2.848-30.848,5.12-89.664-19.264C189.888,347.2,141.44,270.752,137.664,265.792
			c-3.616-4.96-30.4-40.48-30.4-77.216s18.656-54.624,26.176-62.304c6.176-6.304,16.384-9.184,26.176-9.184
			c3.168,0,6.016,0.16,8.576,0.288c7.52,0.32,11.296,0.768,16.256,12.64c6.176,14.88,21.216,51.616,23.008,55.392
			c1.824,3.776,3.648,8.896,1.088,13.856c-2.4,5.12-4.512,7.392-8.288,11.744c-3.776,4.352-7.36,7.68-11.136,12.352
			c-3.456,4.064-7.36,8.416-3.008,15.936c4.352,7.36,19.392,31.904,41.536,51.616c28.576,25.44,51.744,33.568,60.032,37.024
			c6.176,2.56,13.536,1.952,18.048-2.848c5.728-6.176,12.8-16.416,20-26.496c5.12-7.232,11.584-8.128,18.368-5.568
			c6.912,2.4,43.488,20.48,51.008,24.224c7.52,3.776,12.48,5.568,14.304,8.736C411.2,329.152,411.2,344.032,405.024,361.504z"/>
            </g>
        </g>
    </symbol>

    <symbol id="youtube" viewBox="-21 -117 682.66672 682">
        <path d="m626.8125 64.035156c-7.375-27.417968-28.992188-49.03125-56.40625-56.414062-50.082031-13.703125-250.414062-13.703125-250.414062-13.703125s-200.324219 0-250.40625 13.183593c-26.886719 7.375-49.03125 29.519532-56.40625 56.933594-13.179688 50.078125-13.179688 153.933594-13.179688 153.933594s0 104.378906 13.179688 153.933594c7.382812 27.414062 28.992187 49.027344 56.410156 56.410156 50.605468 13.707031 250.410156 13.707031 250.410156 13.707031s200.324219 0 250.40625-13.183593c27.417969-7.378907 49.03125-28.992188 56.414062-56.40625 13.175782-50.082032 13.175782-153.933594 13.175782-153.933594s.527344-104.382813-13.183594-154.460938zm-370.601562 249.878906v-191.890624l166.585937 95.945312zm0 0"/>
    </symbol>

    <symbol id="favorites" viewBox="0 0 471.701 471.701">
        <g>
            <path d="M433.601,67.001c-24.7-24.7-57.4-38.2-92.3-38.2s-67.7,13.6-92.4,38.3l-12.9,12.9l-13.1-13.1
    		c-24.7-24.7-57.6-38.4-92.5-38.4c-34.8,0-67.6,13.6-92.2,38.2c-24.7,24.7-38.3,57.5-38.2,92.4c0,34.9,13.7,67.6,38.4,92.3
    		l187.8,187.8c2.6,2.6,6.1,4,9.5,4c3.4,0,6.9-1.3,9.5-3.9l188.2-187.5c24.7-24.7,38.3-57.5,38.3-92.4
    		C471.801,124.501,458.301,91.701,433.601,67.001z M414.401,232.701l-178.7,178l-178.3-178.3c-19.6-19.6-30.4-45.6-30.4-73.3
    		s10.7-53.7,30.3-73.2c19.5-19.5,45.5-30.3,73.1-30.3c27.7,0,53.8,10.8,73.4,30.4l22.6,22.6c5.3,5.3,13.8,5.3,19.1,0l22.4-22.4
    		c19.6-19.6,45.7-30.4,73.3-30.4c27.6,0,53.6,10.8,73.2,30.3c19.6,19.6,30.3,45.6,30.3,73.3
    		C444.801,187.101,434.001,213.101,414.401,232.701z"/>
        </g>
    </symbol>

    <symbol id="favorites2" viewBox="0 0 512 512">
        <g>
            <g>
                <path d="M376,30c-27.783,0-53.255,8.804-75.707,26.168c-21.525,16.647-35.856,37.85-44.293,53.268
			c-8.437-15.419-22.768-36.621-44.293-53.268C189.255,38.804,163.783,30,136,30C58.468,30,0,93.417,0,177.514
			c0,90.854,72.943,153.015,183.369,247.118c18.752,15.981,40.007,34.095,62.099,53.414C248.38,480.596,252.12,482,256,482
			s7.62-1.404,10.532-3.953c22.094-19.322,43.348-37.435,62.111-53.425C439.057,330.529,512,268.368,512,177.514
			C512,93.417,453.532,30,376,30z"/>
            </g>
        </g>
    </symbol>


    <symbol id="instagram" viewBox="0 0 511 511.9">
        <path d="m510.949219 150.5c-1.199219-27.199219-5.597657-45.898438-11.898438-62.101562-6.5-17.199219-16.5-32.597657-29.601562-45.398438-12.800781-13-28.300781-23.101562-45.300781-29.5-16.296876-6.300781-34.898438-10.699219-62.097657-11.898438-27.402343-1.300781-36.101562-1.601562-105.601562-1.601562s-78.199219.300781-105.5 1.5c-27.199219 1.199219-45.898438 5.601562-62.097657 11.898438-17.203124 6.5-32.601562 16.5-45.402343 29.601562-13 12.800781-23.097657 28.300781-29.5 45.300781-6.300781 16.300781-10.699219 34.898438-11.898438 62.097657-1.300781 27.402343-1.601562 36.101562-1.601562 105.601562s.300781 78.199219 1.5 105.5c1.199219 27.199219 5.601562 45.898438 11.902343 62.101562 6.5 17.199219 16.597657 32.597657 29.597657 45.398438 12.800781 13 28.300781 23.101562 45.300781 29.5 16.300781 6.300781 34.898438 10.699219 62.101562 11.898438 27.296876 1.203124 36 1.5 105.5 1.5s78.199219-.296876 105.5-1.5c27.199219-1.199219 45.898438-5.597657 62.097657-11.898438 34.402343-13.300781 61.601562-40.5 74.902343-74.898438 6.296876-16.300781 10.699219-34.902343 11.898438-62.101562 1.199219-27.300781 1.5-36 1.5-105.5s-.101562-78.199219-1.300781-105.5zm-46.097657 209c-1.101562 25-5.300781 38.5-8.800781 47.5-8.601562 22.300781-26.300781 40-48.601562 48.601562-9 3.5-22.597657 7.699219-47.5 8.796876-27 1.203124-35.097657 1.5-103.398438 1.5s-76.5-.296876-103.402343-1.5c-25-1.097657-38.5-5.296876-47.5-8.796876-11.097657-4.101562-21.199219-10.601562-29.398438-19.101562-8.5-8.300781-15-18.300781-19.101562-29.398438-3.5-9-7.699219-22.601562-8.796876-47.5-1.203124-27-1.5-35.101562-1.5-103.402343s.296876-76.5 1.5-103.398438c1.097657-25 5.296876-38.5 8.796876-47.5 4.101562-11.101562 10.601562-21.199219 19.203124-29.402343 8.296876-8.5 18.296876-15 29.398438-19.097657 9-3.5 22.601562-7.699219 47.5-8.800781 27-1.199219 35.101562-1.5 103.398438-1.5 68.402343 0 76.5.300781 103.402343 1.5 25 1.101562 38.5 5.300781 47.5 8.800781 11.097657 4.097657 21.199219 10.597657 29.398438 19.097657 8.5 8.300781 15 18.300781 19.101562 29.402343 3.5 9 7.699219 22.597657 8.800781 47.5 1.199219 27 1.5 35.097657 1.5 103.398438s-.300781 76.300781-1.5 103.300781zm0 0"/>
        <path d="m256.449219 124.5c-72.597657 0-131.5 58.898438-131.5 131.5s58.902343 131.5 131.5 131.5c72.601562 0 131.5-58.898438 131.5-131.5s-58.898438-131.5-131.5-131.5zm0 216.800781c-47.097657 0-85.300781-38.199219-85.300781-85.300781s38.203124-85.300781 85.300781-85.300781c47.101562 0 85.300781 38.199219 85.300781 85.300781s-38.199219 85.300781-85.300781 85.300781zm0 0"/>
        <path d="m423.851562 119.300781c0 16.953125-13.746093 30.699219-30.703124 30.699219-16.953126 0-30.699219-13.746094-30.699219-30.699219 0-16.957031 13.746093-30.699219 30.699219-30.699219 16.957031 0 30.703124 13.742188 30.703124 30.699219zm0 0"/>
    </symbol>

    <symbol id="star" viewBox="0 0 512.002 512.002">
        <g>
            <g>
                <path d="M511.267,197.258c-1.764-5.431-6.457-9.389-12.107-10.209l-158.723-23.065L269.452,20.157
			c-2.526-5.12-7.741-8.361-13.45-8.361c-5.71,0-10.924,3.241-13.451,8.361l-70.988,143.827l-158.72,23.065
			c-5.649,0.82-10.344,4.778-12.108,10.208c-1.765,5.431-0.293,11.392,3.796,15.377l114.848,111.954L92.271,482.671
			c-0.966,5.628,1.348,11.314,5.967,14.671c2.613,1.898,5.708,2.864,8.818,2.864c2.388,0,4.784-0.569,6.978-1.723l141.967-74.638
			l141.961,74.637c5.055,2.657,11.178,2.215,15.797-1.141c4.619-3.356,6.934-9.044,5.969-14.672l-27.117-158.081l114.861-111.955
			C511.56,208.649,513.033,202.688,511.267,197.258z"/>
            </g>
        </g>
    </symbol>

    <symbol id="star0" viewBox="0 -10 511.98685 511">
        <path d="m114.59375 491.140625c-5.609375 0-11.179688-1.75-15.933594-5.1875-8.855468-6.417969-12.992187-17.449219-10.582031-28.09375l32.9375-145.089844-111.703125-97.960937c-8.210938-7.167969-11.347656-18.519532-7.976562-28.90625 3.371093-10.367188 12.542968-17.707032 23.402343-18.710938l147.796875-13.417968 58.433594-136.746094c4.308594-10.046875 14.121094-16.535156 25.023438-16.535156 10.902343 0 20.714843 6.488281 25.023437 16.511718l58.433594 136.769532 147.773437 13.417968c10.882813.980469 20.054688 8.34375 23.425782 18.710938 3.371093 10.367187.253906 21.738281-7.957032 28.90625l-111.703125 97.941406 32.9375 145.085938c2.414063 10.667968-1.726562 21.699218-10.578125 28.097656-8.832031 6.398437-20.609375 6.890625-29.910156 1.300781l-127.445312-76.160156-127.445313 76.203125c-4.308594 2.558594-9.109375 3.863281-13.953125 3.863281zm141.398438-112.875c4.84375 0 9.640624 1.300781 13.953124 3.859375l120.277344 71.9375-31.085937-136.941406c-2.21875-9.746094 1.089843-19.921875 8.621093-26.515625l105.472657-92.5-139.542969-12.671875c-10.046875-.917969-18.6875-7.234375-22.613281-16.492188l-55.082031-129.046875-55.148438 129.066407c-3.882812 9.195312-12.523438 15.511718-22.546875 16.429687l-139.5625 12.671875 105.46875 92.5c7.554687 6.613281 10.859375 16.769531 8.621094 26.539062l-31.0625 136.9375 120.277343-71.914062c4.308594-2.558594 9.109376-3.859375 13.953126-3.859375zm-84.585938-221.847656s0 .023437-.023438.042969zm169.128906-.0625.023438.042969c0-.023438 0-.023438-.023438-.042969zm0 0"/>
    </symbol>

    <symbol id="up" viewBox="0 0 54 54">
        <g>
            <path d="M27.707,7.293c-0.092-0.092-0.203-0.165-0.325-0.216c-0.245-0.101-0.52-0.101-0.764,0
		c-0.122,0.051-0.233,0.124-0.325,0.216l-16,16c-0.391,0.391-0.391,1.023,0,1.414C10.488,24.902,10.744,25,11,25
		s0.512-0.098,0.707-0.293L26,10.414V53c0,0.552,0.448,1,1,1s1-0.448,1-1V10.414l14.293,14.293C42.488,24.902,42.744,25,43,25
		s0.512-0.098,0.707-0.293c0.391-0.391,0.391-1.023,0-1.414L27.707,7.293z"/>
            <path d="M11,2h32c0.552,0,1-0.448,1-1s-0.448-1-1-1H11c-0.552,0-1,0.448-1,1S10.448,2,11,2z"/>
        </g>
    </symbol>
    <symbol id="phone" viewBox="0 0 513.64 513.64">
        <g>
            <g>
                <path d="M499.66,376.96l-71.68-71.68c-25.6-25.6-69.12-15.359-79.36,17.92c-7.68,23.041-33.28,35.841-56.32,30.72
			c-51.2-12.8-120.32-79.36-133.12-133.12c-7.68-23.041,7.68-48.641,30.72-56.32c33.28-10.24,43.52-53.76,17.92-79.36l-71.68-71.68
			c-20.48-17.92-51.2-17.92-69.12,0l-48.64,48.64c-48.64,51.2,5.12,186.88,125.44,307.2c120.32,120.32,256,176.641,307.2,125.44
			l48.64-48.64C517.581,425.6,517.581,394.88,499.66,376.96z"/>
            </g>
        </g>
    </symbol>

    <symbol id="arrow-right" viewBox="0 0 31 20">
        <path d="M1821.9,504.731l8.85-9.114A0.945,0.945,0,0,0,1831,495a0.89,0.89,0,0,0-.25-0.623l-8.85-9.114a0.845,0.845,0,0,0-1.22,0,0.9,0.9,0,0,0,0,1.252l7.39,7.606h-27.21a0.886,0.886,0,0,0,0,1.771h27.21l-7.39,7.605a0.924,0.924,0,0,0-.25.623,0.883,0.883,0,0,0,.25.623A0.862,0.862,0,0,0,1821.9,504.731Z"
              transform="translate(-1800 -485)"/>
    </symbol>

    <symbol id="right" viewBox="0 0 4.94 7.94">
        <path d="M1691.73,1638a0.692,0.692,0,0,1,.47.18l3.6,3.35a0.584,0.584,0,0,1,0,.88l-3.6,3.35a0.7,0.7,0,0,1-.94,0,0.583,0.583,0,0,1,0-.87l3.14-2.92-3.14-2.92a0.583,0.583,0,0,1,0-.87A0.692,0.692,0,0,1,1691.73,1638Z"
              transform="translate(-1691.06 -1638)"/>
    </symbol>

    <symbol id="filter" viewBox="0 0 456.556 456.556">
        <g>
            <path d="M97.564,79.443H13.428C6.011,79.443,0,73.428,0,66.015s6.011-13.428,13.428-13.428h84.136
		c7.417,0,13.428,6.015,13.428,13.428S104.981,79.443,97.564,79.443z"/>
            <path d="M145.643,127.518c-33.916,0-61.507-27.591-61.507-61.504c0-33.92,27.591-61.511,61.507-61.511s61.507,27.591,61.507,61.511
		C207.15,99.928,179.559,127.518,145.643,127.518z M145.643,31.36c-19.107,0-34.651,15.547-34.651,34.654
		s15.544,34.647,34.651,34.647s34.651-15.54,34.651-34.647S164.75,31.36,145.643,31.36z"/>
            <path d="M443.128,79.443H242.433c-7.417,0-13.428-6.015-13.428-13.428s6.011-13.428,13.428-13.428h200.694
		c7.417,0,13.428,6.015,13.428,13.428S450.545,79.443,443.128,79.443z"/>
            <path d="M325.936,289.782c-33.917,0-61.507-27.591-61.507-61.504s27.591-61.504,61.507-61.504s61.507,27.591,61.507,61.504
		S359.853,289.782,325.936,289.782z M325.936,193.631c-19.107,0-34.651,15.54-34.651,34.647s15.544,34.647,34.651,34.647
		s34.651-15.54,34.651-34.647S345.043,193.631,325.936,193.631z"/>
            <path d="M229.149,241.706H13.428C6.011,241.706,0,235.691,0,228.278s6.011-13.428,13.428-13.428h215.721
		c7.417,0,13.428,6.015,13.428,13.428S236.566,241.706,229.149,241.706z"/>
            <path d="M443.128,241.706h-69.113c-7.417,0-13.428-6.015-13.428-13.428s6.011-13.428,13.428-13.428h69.113
		c7.417,0,13.428,6.015,13.428,13.428S450.545,241.706,443.128,241.706z"/>
            <path d="M130.62,452.052c-33.916,0-61.507-27.591-61.507-61.511c0-33.913,27.591-61.504,61.507-61.504s61.507,27.591,61.507,61.504
		C192.127,424.461,164.536,452.052,130.62,452.052z M130.62,355.894c-19.107,0-34.651,15.54-34.651,34.647
		s15.544,34.654,34.651,34.654s34.651-15.547,34.651-34.654S149.727,355.894,130.62,355.894z"/>
            <path d="M443.128,403.97H227.407c-7.417,0-13.428-6.015-13.428-13.428c0-7.413,6.011-13.428,13.428-13.428h215.721
		c7.417,0,13.428,6.015,13.428,13.428C456.556,397.955,450.545,403.97,443.128,403.97z"/>
            <path d="M82.541,403.97H13.428C6.011,403.97,0,397.955,0,390.541c0-7.413,6.011-13.428,13.428-13.428h69.113
		c7.417,0,13.428,6.015,13.428,13.428C95.969,397.955,89.958,403.97,82.541,403.97z"/>
        </g>
    </symbol>


    <symbol id="play" viewBox="0 0 512 512">
        <g>
            <g>
                <path d="M256,0C114.833,0,0,114.844,0,256s114.833,256,256,256s256-114.844,256-256S397.167,0,256,0z M357.771,264.969
			l-149.333,96c-1.75,1.135-3.771,1.698-5.771,1.698c-1.75,0-3.521-0.438-5.104-1.302C194.125,359.49,192,355.906,192,352V160
			c0-3.906,2.125-7.49,5.563-9.365c3.375-1.854,7.604-1.74,10.875,0.396l149.333,96c3.042,1.958,4.896,5.344,4.896,8.969
			S360.813,263.01,357.771,264.969z"/>
            </g>
        </g>

    </symbol>

    <symbol id="mail" viewBox="0 0 512 512">
        <g>
            <g>
                <path d="M467,76H45C20.137,76,0,96.262,0,121v270c0,24.885,20.285,45,45,45h422c24.655,0,45-20.03,45-45V121
			C512,96.306,491.943,76,467,76z M460.698,106c-9.194,9.145-167.415,166.533-172.878,171.967c-8.5,8.5-19.8,13.18-31.82,13.18
			s-23.32-4.681-31.848-13.208C220.478,274.284,64.003,118.634,51.302,106H460.698z M30,384.894V127.125L159.638,256.08L30,384.894z
			 M51.321,406l129.587-128.763l22.059,21.943c14.166,14.166,33,21.967,53.033,21.967c20.033,0,38.867-7.801,53.005-21.939
			l22.087-21.971L460.679,406H51.321z M482,384.894L352.362,256.08L482,127.125V384.894z"/>
            </g>
        </g>

    </symbol>

    <symbol id="pencil" viewBox="-15 -15 484.00019 484">
        <path d="m401.648438 18.234375c-24.394532-24.351563-63.898438-24.351563-88.292969 0l-22.101563 22.222656-235.269531 235.144531-.5.503907c-.121094.121093-.121094.25-.25.25-.25.375-.625.746093-.871094 1.121093 0 .125-.128906.125-.128906.25-.25.375-.371094.625-.625 1-.121094.125-.121094.246094-.246094.375-.125.375-.25.625-.378906 1 0 .121094-.121094.121094-.121094.25l-52.199219 156.96875c-1.53125 4.46875-.367187 9.417969 2.996094 12.734376 2.363282 2.332031 5.550782 3.636718 8.867188 3.625 1.355468-.023438 2.699218-.234376 3.996094-.625l156.847656-52.324219c.121094 0 .121094 0 .25-.121094.394531-.117187.773437-.285156 1.121094-.503906.097656-.011719.183593-.054688.253906-.121094.371094-.25.871094-.503906 1.246094-.753906.371093-.246094.75-.621094 1.125-.871094.125-.128906.246093-.128906.246093-.25.128907-.125.378907-.246094.503907-.5l257.371093-257.371094c24.351563-24.394531 24.351563-63.898437 0-88.289062zm-232.273438 353.148437-86.914062-86.910156 217.535156-217.535156 86.914062 86.910156zm-99.15625-63.808593 75.929688 75.925781-114.015626 37.960938zm347.664062-184.820313-13.238281 13.363282-86.917969-86.917969 13.367188-13.359375c14.621094-14.609375 38.320312-14.609375 52.945312 0l33.964844 33.964844c14.511719 14.6875 14.457032 38.332031-.121094 52.949218zm0 0"/>
    </symbol>
</svg>

